<?xml version="1.0" encoding="utf-8"?>
<!-- Generator: Adobe Illustrator 21.1.0, SVG Export Plug-In . SVG Version: 6.00 Build 0)  -->
<svg version="1.1" id="Layer_1" xmlns="http://www.w3.org/2000/svg" xmlns:xlink="http://www.w3.org/1999/xlink" x="0px" y="0px"
	 viewBox="0 0 2360 1982.6" style="enable-background:new 0 0 2360 1982.6;" xml:space="preserve">
<style type="text/css">
	.st0{fill:#C9282F;}
</style>
<g>
	<g>
		<path class="st0" d="M0,23.6h215.5c56.6,0,101.7,14.6,135.3,43.7c33.6,29.1,50.3,70.4,50.3,123.9c0,46.7-11,82.6-33,107.7
			s-54,42.2-95.9,51.1l120.3,224.1h-86.5L189.5,356.3H78.6v217.9H0V23.6z M209.2,286.3c34.1,0,61.3-7.6,81.8-22.8
			c20.4-15.2,30.7-39.3,30.7-72.4c0-64-37.8-96-113.3-96H78.6v191.1H209.2z"/>
		<path class="st0" d="M777,484.5c-16.3,29.4-38.8,53.6-67.6,72.8c-28.8,19.1-64,28.7-105.4,28.7c-57.7,0-104.6-20.1-140.8-60.2
			c-36.2-40.1-54.3-93.5-54.3-160.1c0-66.6,18-119.9,53.9-160c35.9-40.1,81.7-60.2,137.2-60.2c55.6,0,100.9,19.8,136.1,59.4
			c35.1,39.6,52.7,93.2,52.7,160.8v22.8h-302c1,37.2,11.4,68,31.1,92.4c19.7,24.4,47.8,36.6,84.5,36.6c17.3,0,32.6-2.4,46-7.1
			c13.4-4.7,24.9-11.9,34.6-21.6c9.7-9.7,16.6-17.4,20.8-23.2c4.2-5.8,9.4-13.9,15.7-24.4L777,484.5z M712.5,328.7
			c-1.6-32-11.5-59.1-29.9-81.4c-18.4-22.3-45.9-33.4-82.6-33.4c-35.1,0-62.4,11.9-81.8,35.8c-19.4,23.8-29.6,50.2-30.7,79H712.5z"
			/>
		<path class="st0" d="M1133.2,534h-1.6c-30.4,34.6-69.7,51.9-118,51.9c-55.1,0-99-19.9-131.7-59.8c-32.8-39.8-49.2-93.3-49.2-160.4
			c0-66.6,17.4-119.9,52.3-160c34.9-40.1,77.5-60.2,127.8-60.2c45.1,0,82.6,17.3,112.5,51.9h1.6V0h76.3v574.1h-70V534z
			 M1126.9,313.8c0-25.7-9.2-48.5-27.5-68.4c-18.4-19.9-43-29.9-73.9-29.9c-37.2,0-65.9,13-86.1,38.9c-20.2,26-30.3,63-30.3,111.3
			s10,85.5,29.9,111.7c19.9,26.2,48.8,39.3,86.5,39.3c29.9,0,54.3-9,73.1-27.1c18.9-18.1,28.3-39.4,28.3-64.1V313.8z"/>
	</g>
	<g>
		<path class="st0" d="M658.2,997.2c7.3,49.8,21,86,40.9,108.5c19.9,22.5,52.7,33.8,98.3,33.8c37.2,0,65.9-7.9,86.1-23.6
			c20.2-15.7,30.3-35.9,30.3-60.5c0-24.6-9.2-44-27.5-58.2c-18.4-14.2-59-31.2-121.9-51.1c-59.8-18.9-102.4-40.5-127.8-64.9
			c-25.4-24.4-38.1-55.4-38.1-93.2c0-40.9,16-75.9,48-105c32-29.1,75.2-43.6,129.8-43.6c51.4,0,94.9,12.8,130.6,38.5
			c35.7,25.7,57.4,63.4,65.3,113.3l-78.6,17.3c-6.8-30.4-19.1-53.9-37-70.4c-17.8-16.5-44.6-24.8-80.2-24.8
			c-32.5,0-57.2,7.1-73.9,21.2c-16.8,14.2-25.2,32-25.2,53.5c0,19.4,8.4,35,25.2,46.8s54.5,27.4,113.3,46.8
			c68.7,23.1,115.2,46.7,139.6,70.8c24.4,24.1,36.6,56.9,36.6,98.3c0,46.7-17.4,85.5-52.3,116.4c-34.9,30.9-82.4,46.4-142.7,46.4
			c-65,0-116.1-16.9-153.4-50.7c-37.2-33.8-59.8-83.5-67.6-149L658.2,997.2z"/>
		<path class="st0" d="M1303.1,1157.6h-1.6c-5.8,11.5-19.3,23.7-40.5,36.6c-21.2,12.8-48.6,19.3-82.2,19.3
			c-47.7,0-83.5-11.4-107.4-34.2c-23.9-22.8-35.8-51.5-35.8-86.1c0-35.1,10.6-62.4,31.9-81.8c21.2-19.4,57.3-35.4,108.1-48
			c45.1-11.5,75.6-21.5,91.6-29.9c16-8.4,24-20.7,24-37c0-16.3-6.8-29.8-20.4-40.5c-13.6-10.7-34.1-16.1-61.3-16.1
			c-51.9,0-84.1,26.2-96.7,78.6l-66.9-23.6c7.3-36.2,24.9-65.5,52.7-88.1c27.8-22.5,64.2-33.8,109.3-33.8c48.8,0,88,12.5,117.6,37.4
			c29.6,24.9,44.4,63.6,44.4,116v275.3h-66.9V1157.6z M1127.3,1048.3c-11.3,10.5-16.9,23.9-16.9,40.1c0,38.3,25.2,57.4,75.5,57.4
			c35.1,0,62.1-7.6,81-22.8c18.9-15.2,28.3-33.8,28.3-55.8v-93.6h-1.6c-2.1,4.7-5.2,8.8-9.4,12.2c-4.2,3.4-13.9,8.1-29.1,14.2
			c-15.2,6-35.9,12.4-62.1,19.3C1160.5,1028.1,1138.6,1037.8,1127.3,1048.3z"/>
		<path class="st0" d="M1468.2,784.9h74.7V825h1.6c11-14.7,27-27,48-37c21-10,43-14.9,66.1-14.9c45.6,0,82.1,13.9,109.3,41.7
			c27.3,27.8,40.9,65.8,40.9,114v272.9h-77.1V950.8c0-71.3-29.4-107-88.1-107c-29.9,0-53.9,8.5-72,25.6
			c-18.1,17-27.1,40.5-27.1,70.4v261.9h-76.3V784.9z"/>
		<path class="st0" d="M2184.7,1161.6h-1.6c-30.4,34.6-69.7,51.9-118,51.9c-55,0-99-19.9-131.7-59.8
			c-32.8-39.8-49.2-93.3-49.2-160.4c0-66.6,17.4-119.9,52.3-160c34.9-40.1,77.5-60.2,127.8-60.2c45.1,0,82.6,17.3,112.5,51.9h1.6
			V627.6h76.3v574.1h-70V1161.6z M2178.4,941.4c0-25.7-9.2-48.5-27.5-68.4c-18.4-19.9-43-29.9-73.9-29.9c-37.2,0-65.9,13-86.1,38.9
			c-20.2,26-30.3,63-30.3,111.3c0,48.2,10,85.5,29.9,111.7c19.9,26.2,48.8,39.3,86.5,39.3c29.9,0,54.3-9,73.1-27.1
			c18.9-18.1,28.3-39.4,28.3-64.1V941.4z"/>
	</g>
	<g>
		<path class="st0" d="M0,1278.7h215.5c55.6,0,100.4,15.2,134.5,45.6c34.1,30.4,51.1,72.3,51.1,125.8c0,53.5-16.6,95.3-49.9,125.4
			c-33.3,30.2-78.3,45.2-134.9,45.2H78.6v208.4H0V1278.7z M213.1,1548.5c30.9,0,56.5-8.5,76.7-25.6c20.2-17,30.3-41.3,30.3-72.7
			c0-33.6-10.2-58.3-30.7-74.3c-20.4-16-46.1-24-77.1-24H78.6v196.6H213.1z"/>
		<path class="st0" d="M453,1412.4h73.1v44.8h1.6c8.4-16.2,20.5-29,36.2-38.1c15.7-9.2,32.2-13.8,49.5-13.8c14.2,0,26.5,2.6,37,7.9
			l-13.4,75.5c-10-4.2-20.7-6.3-32.2-6.3c-50.3,0-75.5,34.1-75.5,102.2v244.6H453V1412.4z"/>
		<path class="st0" d="M720.7,1782.8c-35.9-38.8-53.9-92.8-53.9-162c0-68.2,18.3-121.9,55-161.2c36.7-39.3,82.1-59,136.1-59
			c53,0,97.7,19.7,134.1,59c36.4,39.3,54.7,93.1,54.7,161.2c0,69.2-17.7,123.2-53.1,162C958.2,1821.6,913,1841,858,1841
			C802.4,1841,756.6,1821.6,720.7,1782.8z M939.8,1732.1c21-26.5,31.5-63.6,31.5-111.3c0-47.2-10.5-84-31.5-110.5
			s-48.2-39.7-81.8-39.7c-34.6,0-62.5,13-83.8,38.9c-21.2,26-31.8,63-31.8,111.3s10.7,85.5,32.2,111.7
			c21.5,26.2,49.3,39.3,83.4,39.3C891.5,1771.8,918.8,1758.6,939.8,1732.1z"/>
		<path class="st0" d="M1075,1910.2h14.9c11.5,0,20.1-3,25.6-9c5.5-6,8.3-16.6,8.3-31.9v-456.9h76.3v463.2
			c0,37.2-7.7,64.4-23.2,81.4c-15.5,17-38.9,25.6-70.4,25.6H1075V1910.2z M1119.8,1255.1h82.6v81h-82.6V1255.1z"/>
		<path class="st0" d="M1645.2,1739.6c-16.2,29.4-38.8,53.6-67.6,72.7c-28.8,19.1-64,28.7-105.4,28.7c-57.7,0-104.6-20.1-140.8-60.2
			c-36.2-40.1-54.3-93.5-54.3-160.1c0-66.6,18-119.9,53.9-160c35.9-40.1,81.7-60.2,137.2-60.2c55.6,0,100.9,19.8,136.1,59.4
			c35.1,39.6,52.7,93.2,52.7,160.8v22.8h-302c1,37.2,11.4,68,31.1,92.4c19.7,24.4,47.8,36.6,84.5,36.6c17.3,0,32.6-2.4,46-7.1
			c13.4-4.7,24.9-11.9,34.6-21.6c9.7-9.7,16.6-17.4,20.8-23.2c4.2-5.8,9.4-13.9,15.7-24.4L1645.2,1739.6z M1580.7,1583.9
			c-1.6-32-11.5-59.1-29.9-81.4c-18.3-22.3-45.9-33.4-82.6-33.4c-35.1,0-62.4,11.9-81.8,35.8c-19.4,23.8-29.6,50.2-30.7,79H1580.7z"
			/>
		<path class="st0" d="M2080.8,1685.3c-7.3,48.2-26.5,86.2-57.4,114c-30.9,27.8-71,41.7-120.3,41.7c-56.1,0-101.8-19.7-137.2-59
			c-35.4-39.3-53.1-93.1-53.1-161.2c0-68.7,18.3-122.6,55-161.6c36.7-39.1,82.1-58.6,136.1-58.6c47.7,0,87.4,14.3,119.1,42.9
			c31.7,28.6,50.2,65.7,55.4,111.3l-74.7,11.8c-4.2-27.8-14.6-50.7-31.1-68.8c-16.5-18.1-39.4-27.1-68.8-27.1
			c-35.1,0-63.2,13.1-84.1,39.3c-21,26.2-31.5,63.2-31.5,110.9c0,47.7,10.3,84.8,31.1,111.3c20.7,26.5,49.2,39.7,85.3,39.7
			c29.4,0,52.2-10,68.4-29.9c16.3-19.9,26.7-45.1,31.5-75.5L2080.8,1685.3z"/>
		<path class="st0" d="M2181.5,1479.3h-61.4v-66.8h62.9v-102.2h73.1v102.2H2360v66.8h-103v211.6c0,23.6,3.5,40.2,10.6,49.9
			c7.1,9.7,21.4,14.5,42.9,14.5h31.5v73.9h-37c-45.1,0-77-10.7-95.6-32.2c-18.6-21.5-27.9-54.3-27.9-98.3V1479.3z"/>
	</g>
</g>
</svg>
