<?xml version="1.0" encoding="utf-8"?>
<!-- Generator: Adobe Illustrator 20.1.0, SVG Export Plug-In . SVG Version: 6.00 Build 0)  -->
<svg version="1.1" id="Layer_1" xmlns="http://www.w3.org/2000/svg" xmlns:xlink="http://www.w3.org/1999/xlink" x="0px" y="0px"
	 viewBox="0 0 4698 1794" style="enable-background:new 0 0 4698 1794;" xml:space="preserve">
<style type="text/css">
	.st0{clip-path:url(#SVGID_2_);fill:none;stroke:#C9292E;stroke-width:2;stroke-miterlimit:10;}
</style>
<g>
	<defs>
		<rect id="SVGID_1_" x="9" y="14.1" width="4675.6" height="1768.9"/>
	</defs>
	<clipPath id="SVGID_2_">
		<use xlink:href="#SVGID_1_"  style="overflow:visible;"/>
	</clipPath>
	<path class="st0" d="M9.1,59.7l587.3-44.6l0.3,48.4l38.5,26.9l824.8,291l659.2,4.3l-0.8-116.2l403.7,7.5l30.7,9.9l36,34.1l15.6,34
		l66.7,34.3l128.7,131.5l41,19.6l51.4,43.9l62.2,121.4l0.4,62.9l41.3,53.5l51.3,34.2l46.3,43.9l71.8,29.5l56.5,39.1l56.3,19.7
		l40.9,0.3l20.2-38.6l20.2-38.6l45.5-72.3l20.3-24.1l45.9-19.1l40.7-28.8l30.8,19.6l51.2,10l30.6-9.5l66.5,10.1l35.9,14.8l51.5,53.6
		l46.2,34.2l30.9,34.1l25.8,38.9l20.7,38.9l25.9,48.6l15.6,34l20.8,43.7l20.6,29.2l20.7,34l51.3,24.5l0.2,29c0,0,31,53.4,41.3,58.4
		c10.3,4.9,51.3,29.4,51.3,29.4l20.8,48.5l0.3,48.4l0.3,38.7l36.1,48.6l25.9,43.7l25.9,53.4l46.1,19.7c0,0,15.4,9.8,30.8,14.7
		c15.4,4.9,41.1,24.5,41.1,24.5l51.2,19.7l46.2,29.3l51.1,0.3l40.9,0.3l46.1,19.7l41.1,29.3l30.5-19.2"/>
</g>
</svg>
